# xmcd CD database file
#
# Track frame offsets:
#        150
#        14033
#        27659
#        40718
#        54362
#
# Disc length: 888 seconds
#
# Revision: 0
# Processed by: cddbd v1.5.2PL0 Copyright (c) Steve Scherf et al.
# Submitted via: CUERipper 2.1.5
#
DISCID=3b037605
DTITLE=Kane Brown - Chaptor 1
DYEAR=2016
DGENRE=Country
TTITLE0=Wide Open
TTITLE1=Used To Love You Sober
TTITLE2=Last Minute Late Night
TTITLE3=Excuses
TTITLE4=There Goes My Everything
EXTD=
EXTT0=
EXTT1=
EXTT2=
EXTT3=
EXTT4=
PLAYORDER=
